<svg xmlns="http://www.w3.org/2000/svg" width="176.722" height="41.01" viewBox="0 0 176.722 41.01">
  <g>
    <g>
      <path d="M21.164,18.467c-.587,0-1.062.7-1.062,1.566s.475,1.565,1.062,1.565,1.06-.7,1.06-1.565S21.747,18.467,21.164,18.467Z" fill="#0074ff"/>
      <path d="M17.594,18.467c-.586,0-1.061.7-1.061,1.566s.474,1.565,1.061,1.565,1.061-.7,1.061-1.565S18.176,18.467,17.594,18.467Z" fill="#0074ff"/>
      <path d="M19.377,2.256A19.377,19.377,0,1,0,38.754,21.633,19.377,19.377,0,0,0,19.377,2.256Zm10.49,27.949A5.766,5.766,0,0,1,23.182,27.8,7.684,7.684,0,0,0,25.7,31.073c2.028,1.434,2.823,1.219,3.094,1.71.367.664-1.575,1.694-3.75,1.367a6.826,6.826,0,0,1-5.636-4.6h-.07a6.826,6.826,0,0,1-5.636,4.6c-2.176.327-4.117-.7-3.75-1.367.272-.492,1.065-.276,3.1-1.71A7.682,7.682,0,0,0,15.572,27.8a5.767,5.767,0,0,1-6.685,2.407c-1.963-.576-2.371-1.9-1.924-2.167s1.661.158,3.726-.553a5.494,5.494,0,0,0,3.484-4.4,4.621,4.621,0,0,0-.487-2.412c-.627-1.312-1.561-2.388-1.561-4.7a6.845,6.845,0,0,1,6.762-6.928c.169,0,.337,0,.506.012,4.727,0,7.268,3.324,7.268,6.916,0,2.312-.92,3.393-1.559,4.7a4.533,4.533,0,0,0-.52,2.417,5.489,5.489,0,0,0,3.482,4.4c2.065.711,3.283.285,3.728.553s.038,1.589-1.924,2.162Z" fill="#0074ff"/>
    </g>
    <g>
      <path d="M51.166,11.45a8.226,8.226,0,0,0-8.158,8.077v4.391a8.2,8.2,0,1,0,16.395,0V19.527A8.267,8.267,0,0,0,51.166,11.45Zm0,17.16a4.7,4.7,0,0,1-4.451-4.693V19.526a4.637,4.637,0,0,1,4.451-4.572A4.737,4.737,0,0,1,55.7,19.526v4.392a4.735,4.735,0,0,1-4.531,4.692Z" fill="#0074ff"/>
      <path d="M74.565,27.079a2.108,2.108,0,0,0-1.17.5,5.212,5.212,0,0,1-3.382,1.03c-3.122,0-4.773-1.623-4.773-4.693v-4.31c0-3.044,1.637-4.652,4.733-4.652a5.078,5.078,0,0,1,3.246,1,2.041,2.041,0,0,0,1.144.489,1.874,1.874,0,0,0,1.713-1.833c0-1.5-2.556-3.162-6.224-3.162-5.208,0-8.319,3.05-8.319,8.157v4.31c0,5.133,3.124,8.2,8.359,8.2,3.785,0,6.424-1.688,6.424-3.2A1.822,1.822,0,0,0,74.565,27.079Z" fill="#0074ff"/>
      <path d="M86.407,28.368H85.279c-2.483,0-3.2-.673-3.2-3V14.956h4.652A1.56,1.56,0,0,0,88.2,13.324a1.561,1.561,0,0,0-1.471-1.632H82.079V4.14a1.755,1.755,0,0,0-1.873-1.511A1.728,1.728,0,0,0,78.373,4.14V25.368c0,4.29,2.324,6.466,6.908,6.466h1.128a1.734,1.734,0,0,0,1.752-1.716v-.037a1.715,1.715,0,0,0-1.715-1.713Z" fill="#0074ff"/>
      <path d="M97.5,11.45c-2.5,0-5.982.989-5.982,2.6A1.814,1.814,0,0,0,93.113,16a2.322,2.322,0,0,0,1.035-.354,6.514,6.514,0,0,1,3.274-.814c4.006,0,4.209,4.111,4.209,4.934v.422h-1.51c-4.623,0-9.93.689-9.93,6.063,0,3.615,2.308,5.861,6.022,5.861a8.048,8.048,0,0,0,5.538-2.308v.435a1.641,1.641,0,0,0,1.686,1.6l.067,0a1.668,1.668,0,0,0,1.826-1.493c0-.032,0-.065.007-.1V19.768C105.338,14.559,102.408,11.45,97.5,11.45Zm-.644,17.361a2.626,2.626,0,0,1-2.946-2.261,2.557,2.557,0,0,1-.015-.539c0-2.432,2.52-2.92,6.586-2.92h1.147v2.034c0,1.493-2.514,3.686-4.773,3.686Z" fill="#0074ff"/>
      <path d="M121.926.01c-1.091,0-1.914.65-1.914,1.511V13.4a6.571,6.571,0,0,0-4.773-1.947,7.931,7.931,0,0,0-7.754,8.077v4.39c0,4.367,3.587,8.2,7.674,8.2a7.044,7.044,0,0,0,4.975-2.034v.162a1.745,1.745,0,0,0,1.793,1.591,1.723,1.723,0,0,0,1.792-1.591V1.521A1.613,1.613,0,0,0,122.015,0C121.985,0,121.956.007,121.926.01Zm-1.914,19.517v5.639a4.877,4.877,0,0,1-4.37,3.444,4.758,4.758,0,0,1-4.451-4.693v-4.39a4.716,4.716,0,0,1,4.492-4.572,4.357,4.357,0,0,1,4.332,4.382c0,.063,0,.127,0,.19Z" fill="#0074ff"/>
      <path d="M138.123,23.092c1.514,0,4.048,0,4.048-3.767A7.986,7.986,0,0,0,134.1,11.45a8.109,8.109,0,0,0-8.237,7.956v4.512c0,4.827,3.784,8.2,9.2,8.2,4.081,0,6.586-1.865,6.586-3.2a1.865,1.865,0,0,0-1.672-1.793,2.346,2.346,0,0,0-1.279.534,5.715,5.715,0,0,1-3.555,1.077c-3.337,0-5.578-1.886-5.578-4.692V23.1Zm-4.069-8.379a4.522,4.522,0,0,1,4.491,4.531c0,.683,0,.826-1.469.826h-7.512v-.986A4.437,4.437,0,0,1,134.054,14.713Z" fill="#0074ff"/>
      <path d="M151.992,20.056c-2.315-.673-3.734-1.163-3.734-2.7,0-.965.734-2.6,3.485-2.6a7.107,7.107,0,0,1,3.148.773,2.882,2.882,0,0,0,1.121.355c1.012,0,1.631-1.239,1.631-1.914,0-1.621-3.513-2.518-5.941-2.518-4.772,0-6.909,3.025-6.909,6.022,0,3.934,3.2,4.888,5.776,5.655s4.174,1.346,4.174,3.368c0,1.914-1.961,2.316-3.6,2.316a6.007,6.007,0,0,1-4.038-1.3,2.242,2.242,0,0,0-1.28-.589,1.7,1.7,0,0,0-1.469,1.752c0,1.629,2.821,3.444,6.867,3.444,4.337,0,7.03-2.2,7.03-5.74C158.251,21.873,154.783,20.866,151.992,20.056Z" fill="#0074ff"/>
      <path d="M176.5,29.284l-6.734-9.857,5.548-4.869a1.427,1.427,0,0,0,.478-1.143,1.91,1.91,0,0,0-1.874-1.793,1.729,1.729,0,0,0-.884.32l-9.005,8V1.533c0-.875-.788-1.511-1.874-1.511a1.657,1.657,0,0,0-1.829,1.466l0,.045V30.254a1.747,1.747,0,0,0,1.833,1.591,1.772,1.772,0,0,0,1.874-1.591V24.5l3.059-2.693,6.409,9.422a1.466,1.466,0,0,0,1.267.739,2.073,2.073,0,0,0,1.954-1.873A1.817,1.817,0,0,0,176.5,29.284Z" fill="#0074ff"/>
    </g>
  </g>
</svg>
